<svg version="1" xmlns="http://www.w3.org/2000/svg"  height="150" viewbox="0 0 8130 3990">
        <g id="main">
            <path d="M0 1995V0h8130v3990H0V1995zm2168 1708c3-19-1-23-22-23-14 0-26-4-26-10 0-5 12-10 26-10 20 0 25-4 22-22-2-14-13-25-28-29-25-7-25-7 3-8 23-1 28-5 25-23-3-20-10-23-60-26l-58-3v182l58-3c50-3 57-6 60-25zm167-54c14-44 25-84 25-90 0-5-13-9-29-9-24 0-31 6-41 33l-13 32-10-32c-9-29-14-33-43-33-22 0-32 4-29 13 30 96 48 153 52 160 2 4 17 7 33 7 28 0 30-4 55-81zm173 54c3-19-1-23-22-23-14 0-26-4-26-10 0-5 12-10 26-10 20 0 25-4 22-22-2-14-13-25-28-29-25-7-25-7 3-8 23-1 28-5 25-23-3-20-10-23-60-26l-58-3v182l58-3c50-3 57-6 60-25zm92 10c1-17 1-17 11 0 6 11 22 17 44 17 39 0 43-9 19-45-11-17-13-29-7-38 21-26 21-47 2-71-18-23-28-26-80-26h-59v180h35c27 0 35-4 35-17zm250-22c0-23 10-57 25-82 14-24 25-47 25-51 0-5-15-8-34-8-26 0-36 5-41 21l-7 21-15-21c-14-21-73-31-73-12 0 5 11 29 25 52 14 25 25 60 25 82 0 36 1 37 35 37s35-1 35-39zm221 10c67-67 18-151-87-151h-54v180h56c48 0 59-4 85-29zm129 19c0-5 11-10 25-10s25 5 25 10c0 6 16 10 35 10s35-5 35-11c0-7-10-47-22-90l-21-79h-103l-22 84c-12 46-22 87-22 90s16 6 35 6 35-4 35-10zm280-40c3-25 15-61 28-81 12-20 22-39 22-43 0-14-64-5-76 12-13 16-15 16-25 0-6-12-22-18-45-18h-36l31 55c19 33 31 69 31 90 0 35 1 36 33 33 30-3 32-6 37-48zm250 20c0-20 5-30 15-30s15 10 15 30c0 28 3 30 35 30h35v-180h-35c-32 0-35 2-35 30 0 20-5 30-15 30s-15-10-15-30c0-28-3-30-35-30h-35v180h35c32 0 35-2 35-30zm240 5c0-20-5-25-25-25-14 0-25-4-25-10 0-5 12-10 26-10 20 0 25-4 22-22-2-14-13-25-28-29l-25-7 28-1c22-1 27-6 27-26 0-24-3-25-60-25h-60v180h60c57 0 60-1 60-25zm100 15c0-5 11-10 25-10s25 5 25 10c0 6 16 10 35 10 40 0 39 10 6-115l-16-60-52-3-52-3-11 43c-6 24-15 59-21 78-14 55-12 60 26 60 19 0 35-4 35-10zm265-20c0-18-6-26-22-28-21-3-23-9-23-63v-59h-70v181l58-3c53-3 57-5 57-28zm135-25c0-42 3-55 15-55 10 0 15-11 15-35v-35h-140v35c0 24 5 35 15 35 11 0 15 12 15 48 0 58 3 62 47 62h33v-55zm130 25c0-38 18-40 22-2 3 24 7 27 38 27h35v-170h-35c-31 0-35 3-38 28-4 37-22 35-22-3 0-28-3-30-35-30h-35v180h35c32 0 35-2 35-30zm330-25c0-42 3-55 15-55 10 0 15-11 15-35v-35h-140v35c0 24 5 35 15 35 11 0 15 12 15 48 0 58 3 62 47 62h33v-55zm126 44c4-8 9-8 17 0 12 12 77 15 77 3 0-4-7-18-16-31-13-18-14-28-5-47 27-60-4-94-84-94h-55v180h29c17 0 33-5 37-11zm194 1c0-5 11-10 25-10s25 5 25 10c0 6 16 10 35 10s35-5 35-11c0-7-10-47-22-90l-21-79h-103l-22 84c-12 46-22 87-22 90s16 6 35 6 35-4 35-10zm288-27c3-29 1-32-25-30-24 2-28-2-28-23s5-25 28-25c24 1 27-3 27-32 0-27-4-33-22-34-48-3-64 3-90 32-36 38-36 78-2 119 23 27 32 31 68 28 38-3 41-5 44-35zm99 17l6-21 14 21c9 12 25 20 44 20 35 0 35 0 9-50l-20-40 20-40c26-50 26-50-9-50-19 0-35 8-44 20l-14 21-6-21c-4-15-13-20-36-20h-31v180h31c23 0 32-5 36-20zm243-5c0-20-5-25-25-25-14 0-25-4-25-10 0-5 12-10 26-10 20 0 25-4 22-22-2-14-13-25-28-29l-25-7 28-1c22-1 27-6 27-26 0-24-3-25-60-25h-60v180h60c57 0 60-1 60-25zm91 3v-23l11 23c9 17 20 22 50 22h39l-17-31c-13-26-13-36-3-60 9-22 9-36 1-54-13-28-41-38-103-33l-44 3-3 74c-4 92 0 101 38 101 24 0 30-4 31-22zm328-468c212-40 347-177 413-416 31-114 31-373 0-487-56-205-170-338-340-399-81-28-254-35-346-14-159 38-276 132-348 281-56 118-72 201-71 385 0 126 4 170 22 234 61 226 179 355 371 405 83 22 216 27 299 11zm1161-1c123-19 235-88 285-174 73-124 85-224 85-731v-401l-52-7c-68-8-182-7-233 2l-40 7-5 450c-5 442-5 451-28 496-29 60-58 74-148 74-63 0-76-3-99-25-60-54-60-55-65-545l-5-450-40-7c-51-9-165-10-232-2l-53 7v401c0 507 12 607 85 731 84 144 302 213 545 174zm-6582-5l52-7V2221l153-3 152-3 9-73c5-44 5-101 0-140l-9-67-462-3-463-2-7 27c-10 35-10 199 0 236l7 27h300v1009l38 4c66 7 175 7 230 1zm641-12c3-6 19-62 36-126 25-100 32-115 47-110 65 20 200 20 308 0l35-7 33 122c18 68 34 124 36 126 9 9 181 15 249 8 57-5 77-10 77-21 0-16-388-1276-395-1283-10-9-261-12-300-4l-40 9-201 639c-111 352-199 642-197 644 17 21 299 23 312 3zm1138 4c3-3 10-142 14-308 5-167 10-328 11-358 3-55 3-54 87 177 68 190 87 232 105 237 28 7 175 7 203 0 18-5 39-50 117-243 82-203 95-230 96-196 1 22 7 186 13 365l12 325 55 8c62 10 238 3 251-10 9-10-50-1275-61-1286-12-13-158-21-233-13l-66 7-127 322c-69 177-129 325-133 329-3 4-60-135-126-309-66-173-125-323-132-332-10-14-34-16-161-16-83 0-153 3-157 6-6 6-54 1099-55 1236v62l38 4c48 6 242 1 249-7zm1278 5c28-6 31-11 63-126 19-66 35-121 36-122s19 2 41 8c55 13 200 13 259-1 27-6 51-9 53-6 2 2 19 57 37 122l33 119 44 8c43 8 277 2 286-7 7-6-386-1278-398-1291-10-10-323-15-333-5-13 13-405 1285-399 1291 16 16 218 23 278 10zm1639-32c3-17 6-69 6-114s-3-97-6-114l-6-31h-418V1933l-46-7c-60-8-168-8-228 0l-46 7v1297h738l6-31zM4150 1549c110-81 162-130 232-218 104-129 158-261 159-387 1-79-11-117-49-157-96-102-234-86-375 44l-61 56-54-53c-144-143-315-151-397-20-92 150 5 422 224 629 75 70 206 167 227 167 7 0 49-27 94-61zm537-454c65-30 122-77 190-155 12-14 42-42 67-63 42-35 46-42 46-83 0-59-31-145-72-200-18-25-73-74-123-111-93-68-129-105-155-157-27-56-49-58-163-20-131 44-134 47-112 115 19 59 43 88 57 66 5-8 8-7 8 6 0 9 7 17 15 17s24 5 34 12c16 9 28 7 70-14l50-25 12 56c6 31 19 77 29 104l18 47h-46c-43 0-112 29-112 46 0 3 12 20 27 38 14 17 32 45 40 63 17 43 17 178-2 239-8 27-15 53-15 57 0 14 61-3 137-38zm-1117 33c0-2-7-25-15-52-19-62-19-196-1-240 8-19 31-52 51-74l36-41-30-15c-43-23-109-20-151 5-23 14-30 16-21 6 7-9 21-19 32-22 19-6 50-88 64-173 5-30 10-40 18-34 25 19 96 41 102 32 3-6 15-10 26-10s22-6 25-14 13-12 24-9c14 4 22-7 39-53 12-31 21-64 19-72-4-19-214-95-244-88-12 3-35 30-55 63-26 44-55 74-124 125-49 37-105 84-124 105-48 55-83 135-88 207l-5 62 43 37c23 20 46 37 50 37s24 22 44 50c44 59 117 115 193 146 49 20 92 30 92 22z"
            />
            <path d="M3000 3640c0-20 5-30 15-30 21 0 30 27 15 45-19 23-30 18-30-15zm221 4c0-11 3-14 6-6 3 7 2 16-1 19-3 4-6-2-5-13zm2050 0c0-11 3-14 6-6 3 7 2 16-1 19-3 4-6-2-5-13zm699-34c0-5 5-10 10-10 6 0 10 5 10 10 0 6-4 10-10 10-5 0-10-4-10-10zm125-655c-50-17-99-72-120-133-41-121-41-353 0-473 20-58 69-118 111-135 43-18 138-18 172 0s75 62 94 101c54 110 60 372 11 509-42 117-153 171-268 131zm-4413-213c-13-4-24-11-24-15-3-18 107-426 113-419 9 11 110 424 105 429-8 9-170 13-194 5zm2448-1c-32-10-32-7 32-256l52-199 55 221c31 122 52 225 48 229-10 10-157 15-187 5zm366-2287c-8-20-4-25 11-16 7 4 9 13 4 21-6 10-10 9-15-5zm-866-3c0-5 5-13 10-16 6-3 10-2 10 4 0 5-4 13-10 16-5 3-10 2-10-4z"
            />
        </g>
    </svg>